# xmcd
#
# Track frame offsets:
#	150
#	18610
#	34557
#	47862
#
# Disc length: 816 seconds
#
# Revision: 3
# Processed by: cddbd v1.5.2PL0 Copyright (c) Steve Scherf et al.
# Submitted via: audiograbber 1.83.01
#
DISCID=2b032e04
DTITLE=Enya - I want tomorrow (Single)
DYEAR=1987
DGENRE=Pop-Folk
TTITLE0=I want tomorrow
TTITLE1=Boedicea
TTITLE2=The celts
TTITLE3=To go beyond
EXTD=
EXTT0=
EXTT1=
EXTT2=
EXTT3=
PLAYORDER=
